<mxfile host="app.diagrams.net" modified="2021-08-26T08:41:17.109Z" agent="5.0 (Windows NT 10.0; Win64; x64) AppleWebKit/537.36 (KHTML, like Gecko) Chrome/92.0.4515.159 Safari/537.36" etag="p26g0TSjySm8zn61qjWQ" version="14.9.9" type="github">
  <diagram id="DwmKO0eEpT9wg_CsmVE1" name="Page-1">
    <mxGraphModel dx="1422" dy="762" grid="1" gridSize="10" guides="1" tooltips="1" connect="1" arrows="1" fold="1" page="1" pageScale="1" pageWidth="827" pageHeight="1169" math="0" shadow="0">
      <root>
        <mxCell id="0" />
        <mxCell id="1" parent="0" />
        <mxCell id="CnO6H3w86couGsOHqTWS-1" value="" style="shape=image;verticalLabelPosition=bottom;labelBackgroundColor=#ffffff;verticalAlign=top;aspect=fixed;imageAspect=0;image=data:image/jpeg,/9j/4AAQSkZJRgABAQEAAQABAAD/2wBDAAYEBQYFBAYGBQYHBwYIChAKCgkJChQODwwQFxQYGBcUFhYaHSUfGhsjHBYWICwgIyYnKSopGR8tMC0oMCUoKSj/2wBDAQcHBwoIChMKChMoGhYaKCgoKCgoKCgoKCgoKCgoKCgoKCgoKCgoKCgoKCgoKCgoKCgoKCgoKCgoKCgoKCgoKCj/wAARCAFAAfQDASIAAhEBAxEB/8QAHQAAAQUBAQEBAAAAAAAAAAAAAgABAwQFBgcICf/EAEQQAAEEAQIEBAMGBAQFAwQDAQEAAgMRBAUhEhMxQQZRYXEUIoEHIzKRocEzQrHRFVLh8BYkYnLxF0NTY4KSsjREZIP/xAAZAQADAQEBAAAAAAAAAAAAAAAAAQIDBAX/xAAkEQEBAAICAgMBAQEBAQEAAAAAAQIRAyESMQQTQVEUImEFMv/aAAwDAQACEQMRAD8A97f0UbwHbFS9UDgOqtzq7mubuDxj/L/ZRFwca3vuD2V3hB7qGaIH37HuqhWKdFhtnTySAEttLd+7SpX8Tbvcf5h1SYA4dbHqr3olR8To9mAuZ5XuELQJB8h/0VyVrgL/ABj9VCxocbGx7EJy9I0Hk7dN1MyGxR7Im2N5PzHRWQBwdkrVSM7IADfVVdyr88ZJqlHyqVSs7EAjtG2NWWRo2RhFzPxUyN1E8bK5M3fZQObRVe0WKb21umVp7bCikaQNlWFRYipKk5sJ6WiTUKST0l9EAySOkq9EACSOkqQAJI0qQAJI6SpADVJqI6KTsmpABRT0UdJqQA0UqKKiipARgbokVJUgBSRUlXogIqSUjhv0TcKACh6pV7o6QuQDJJ6KVIBkk9JUgaNQTEIqSpBaDSEhSJv+5A0jpKqUjUt0DQOE90uFGmQNALSm7KSkJG6ewjJ8kr80dJUgGSSSSAeEeSSK0kE60hNw3spaS4VwbenpGID/AJgj+DcRYcE+4T7+qQ1FaXHe3qFWMQuxbT5haBvzQcLb33VbZ6VoY5JHhtfUdFNBpj55gBYPcjyWvp5jBtjd/MLUja3htoq/JT9jScaiNJxQAC13vfVH8HBBHUcLa/NXzQG6je1rh8ho+YU21pJHP50GMTxAcs10Cx3Fvc19F0uoYg+FkLxe1+i5qaEizGbHkT/Racdc/JLFuKDibbSpPhCBe6q6bOI5C0kgeRW1gZUUjpWSVVbEp3cE1WHMADXdQvAIV7JjaQSw91RpXhUZTSu9tBC8WFZc21GY6ffotNsVMjfqlSnkFbqNaSloFJ6RbpUmWg1vui2S3S3QYd0voj7JNHqgtI6SpS0mpGxoDUSKgmcgaMkn2S2QfRvolSJFSB0BLdGAlSEgpKkfClwm0bUCk1IuE2i4UbCPokpOAoeEhEpaRplLwod0bGg9eyake6SNpBRT0iSQAOSpGhTBISN0SVICOkqUlJUgI6RUnpIhABRTdEaVIAKQUpqTHogIqSpGkgI6KSkSQWnX0koYpr2IUy896eySStC5BBchpGnaCTQFqvwrFvThwi76rZh/htWThRnmBpafVbIFBZrxOqmVcX3jB+St9FVzHjlkV1SWzczMcYSKv1C5+VrS62mifLZacx7KlM0ErXCac3Jdqjxvu2/UdUcTy0/I6/QndCWuH4Hfmmf1FtPv5LazbKVZMwLPI+qrF1FMLr7t3H6HdCQR5j23CJ0VqQboXJNkodj7H9kuIEdRaEbQTCwFE09lZPdROAvZWC2KVboWqTsnsg0EqRUl3RsBrdKlLQSpGwiAT0pKSRsIqSqwpdvRNSNhHwpw1SUl9UbCPhS2R0lSewFJFw2lVFGwVikPdFVnonpSCtJPSVIBkiEqSQDEIFJSalWwjpBQU9JcKaUBCetlNwpUls9IKSIIU/Clwo2NK6SsUEqCPMaV0qKsV6IaVbGkVFMQpuEoSEbGkNBKgpKTUEFoCakaSZAcAgoKavZBSQR0kpKSTDoAaKna6lBwm1IOi893pLtH2UIO6kcbQo10VLjycJ9VEiZ1QVaePlhpPGFdZPGRYKwgUueYyp0rzbM2Wxnqs3PzC4UNgoDPxdVVmdZNpzFOeQJZLKiLtk5KAhaxlpETZTIjH3UZ+VaI9FQJ3CXL8ifzTEpwdkI8thc031v3CB0Z7UFPaE7oJVMbv5XfohdG8/zsv/tVhyZMM+RuaMyIsfGcblvEg4f57FfugxpsmTNlcf8A+IYwIxw7h4J4z7dFoSHhbahxy6nuIr7x+13taX6fWvQMMzmbJ59cvmDk/LRqh+9q24eyHb/7D+iIGiBYVlTtSSSQRJJJIBUE9JIgEANJUjTtFoCNE0WipKkAPClwqRJAR8JRAJVuiQCoIaFJj1S7IBHog6pJIBkk6VIBkkiKFhJAJJJJAJJKrSpMEknr0SpIGSSSQDEoLR1uhcBacCO0zlImpUWkaSk4Sh4UtlqhSRcKbg9ExqmST0klsaroaS2pTSAVYKqPN7hcT0afm7qZrgVUoudQWrhYT4zUjLvoQlek49qbi4kUOqmEUxtpaQ8C6pbsOLHFuG27zKJzwJOHa67peavByz5HA08EEd6pRSzSDqdlt6w5k2MN9wegWAT8xWuPbHLpOx3Ey2Hp1SO4VdknCduhKmeQRYTKXZj0QKeZsXLY6O+PvagRKDOQSURuprUEgsKoio7QcVeymjjsKXkbJ7R4Kl/N02WxomnjKJlmB5Q2A8ys6SItogWV1ukRcrCbvudz6KM8+mvFx99sfVtMZG8fDsLeKgBeyysrGlxX8MgortMxgdGCeywtSa3ImiYx1/5vRRhyNMuKOfcOIg0aYetdCggrhNf5n/1K6+bFhx8YhjeNjxuVx8MfLBHYufX/AOZWuPJ5ZMeTjuESfh9u3okRW3b+ikDSR0Q8ojrdf0Wm2eqGqNFFSTo+EG7ry/dEw9nfmmWg0kApKPZJoKAGkVIkkANFKiESfZANulSe0kGakqTp6QApfROkgjUklSVFADweiTh6I901ICPhSpSUlQQAAJ+FFSekAHClweiNJ3oEBG1volyz5I6SpABwpcBR0kgAMe3qmpSJICMhBSlpDVoAKS2R0hpANSagipKkAPCEiE6SACkkaSA3ZRQVZw+borb22o447dxfouXbu0s4eLGPmed+3otyEVGAsiPYjYKw2d7dhaytrSajUVPMZVvUIzHA/MoMnJ4+pR7FqnkEuJKoZAo3XZXnEKvOfRaz258ptRZG6T8AUjY5Ae+5rotDDxzJQYFsfAxMAPCXkeZReTQx4mFk4c0MbHbkEWVUIINEEFdgGmRtSAV5Knl6ZBMOLhcCOwdSmch5cX7HNdQjii5hNuoAIpoOXM8CwL6FT4ETTKOcaZ3WlvSJO9VFDE3hfZII6eqHstLOGO7+G4DypZbwAdjaJdnZpNBw8xnMFi910XxbdhHQXMNdSsDIIbanKbPDPTo3uE3ydFkZDeXKa8+qrw5jmvDupVhhOVLttajWmlu1vGueIMeTQ79ly4h5cLD5l/8A+5XWOjGOWcB2PVc/jlp0uIdT8/8A+5RjdUuSTxVMeRjTT+qvsMZFGlkzNpxBVfnPaavZdEm3PMtNuSKOrH4P6Ku+KOtlSblyA7lD8U4G628k/GjylWtuiVHyVfn8W4QsyN6faNUuluj5JNB8k8JDhxKa/JGz8UNeiaj5KyzhpF8vojzHgqUlSnoWn4QUeZeFRVSSkEdoSK2RtPjTUlR8k+3si4T5o2PGgr2Soo6KFMaNSXCjoJUgaR8KfhR8KFrfmG6ZaC4bXScRuokNJHnSnLuxFhWsPUhBFy3sBjPWuqjyv40mE/WdSVKzkuxp5h8OeAnsdkMePJLKG8NX3T8+uy8LvpBSVK3NgyxWSQa7KqiWVNwsNw2gLQjS+iZAoJnUpKRUPJVsIKCVKXhFpcIRsIvolXoi4U3CjZApMQpKpMjYR0hcpkDgUwjSR0UkBtEm1IBVUmcBaNu9Lieil3FFSB1lA1oI6qbGaGvvySAnQEx2QqJaL6LebThfmq8uIJJOIlKZU7GNy3VfDQUb4vRa+XG3h26+SoBp4gFUyZ3FLhW0iltDoq0GM1oF3f8ARTSWGbGvdZ33tpj6SJnfhKz48xwlLZyK7bI5MzrQFK7RtmZUXNyTVC+5WY9zhIadVHaldzJuZISNr7LPlWmLn5CMhN2VGXJOQ91oz2kDkmmzahPWuiK0htLxbqxDOYyCCqd2n4uyXsebUfmcxw87CycaWsRn/wB/9SpY3feM9wqeOf8AlWDyL/6lKY/9LuW4d+5JUL232Uh6ID0XROnOgqii6pOb6pAJkfh8kzTexG6K9kzxe6DWIHcLd1YZIJLpZ4J9wrMJFbdVlk0lW72QcSj4qSsEqVj4inbKUzW2gcK2tEQm5u6XM39FUN2na491Wi32ne60mS13UDyh4vRGh5LonB6hScwVfZZ4OycWE4cu1rmAlSWFR4ik2Qg2mbTbG5zeJjSQE8EPOdXEAlgasYG8Dxt22TZGU2STijFeyytu9Kkns0rox8o7dSqslUic61G5OdHSa0Eiuq6CPBfjtYS6yf0XO/otbH1aTkBpNlvc90uTd9Djsl7aORBLy/ncAFj5cfLddfkpZdXlkHC+iPVV5MoO6gKcZYrksqNEkHsLdj06gog2xa12y0jSR8KZwpPabjQpJJI2nRIUSSY0HqhpSUlSB4IaSUtbpiEDwRpJ6SQPBz3hHxvi6/r2Zj4+VEMdgqKMi3yeTx5A+q7iJ0coBY6/qvmfwpr+Hpue/NxMiFks2KQInNIDZwbHAwCyPr5rvdB8cYJnwsGPMyIp5o6dxHjL5D+N/HV7b9R5BedxcvnO3d6eyM7bq3iFoko/RY8WQOTA5jiQWggu6lTOyyCOAraynuNuScR7cKjGXt+ElVmagODcjysKpz7J4CQFM7Pa/POHBldVUaRfEkxzT17qVnK3F+yetCNHFfzI7790UzS5ppVIshkbaAQvzqHRTT2qZTOGnFU3y10Knz8zmiht7LNMgI2WmHpjaaVxJ6qO76pnOtAeq01plRuNKCaVrfxuYwnzKMmgvKPtF1oSav8ABYbpPiXw8klrSeE9eA+XqllyfXNp9vVWolwH2Q67Pqei5On5sjJMvTHCEuBJth6En8136qXyha0SG0TkB6JwK+flTYsIlx8f4iQSMBjDuDa9ysDT8zXf8bliyMTFGjBrzHNHLbjv/k632Wtlu1AahH8OYo8QR26R2547FbeVWsfRsNsEU8+JM8MzC+ZtHmWSeovuR2UatyP8aWkapDqkL58VsggDuAOcK4vYf3Vxzjar6c0jG4nxcsuNmwA/6139lM5b4b/WVOSmtC4em6rwZcU2TLA1w5sZNtvsq2JLVpqdpCQ6JUmC6OU9tHVV3JJWbEqy119790Bl4ZWNfYsHfqFE00pDJYobKNL8jQ5xkEf3EjOMkO4v/bG+/r0H5qV8oI27qsQSQSbIHdSNA+iWEFp7TXun5aXCrQVo2C07G30UjRSm1cxBwoqT90dJbVoPDtuh4RSkT1sp2EBFBExxCItRigeiNpgOJFdhO5oPRPy02gTXkoXWCp+EoKBTiNBJJQuJ80fLTEJ7gsobICkinLBuoyEyC1YsuyvIJHI2sC1VpP6dkaLdXGTMcaogqVw26LOBsbbUrEOZJGzhNEeqVhyz9TpUq78pzt+hUrJ4iPnIYVPatwdDzQ1uN+6y8jxBpUGQYJM/HZP/APGXboodZxp9PkyoS8gE8LXNILq9PJLzGu3OZ/jHIx8iWJmFC9jHEBzpCL/TZYz/ALR8lth+FjB4/wDbMhsjvRXKeJdRm0PQMTVstxyYnSvjlkmaWSE8ZIeGVfL3IBIF0uRd4qwJ4ubjx86JhJDjHVelLg5ufkk/5rvw4sddvToftcjp3N+DY7iOx4kl4FqWdBLlve3FiYD/ACvk3CS5vt5v6X0YsqXU5JXG3EV/MQi03X3YeeJZnyAs/mjduub+MdZ+bYnuoHOt5tds4tFe30Ph/bw6CTCbiYb2QRNqeKeTjBH/AEEC2Lu5vtk0rKxI8jTmyPkkaPupPkIPv0Xx2XWrEGZLF0OwV5TLX/LPwj6i0v7W8mCScawSAd4zGdgP990PhT7YZZdZ4dbyYmafuHfdgCPccBvqSvmh2oykMHNP57KI5Tq4mPPH3USZ/wBVqP0E0PX8HWIw7TshkzCLaQeq2WSb9V8N+EftP13SMrCvN48fHHL4XDoz6L6X0n7T9LyMMy5WVDHJFFzPu3WJhV/J/bsVrv8AqNaekZWUImW+QM9yoOeXAG9iLBHdfP3iH7ZtTmMoxIsfGibJ8tAlxZ5HyXNYf2oa2zOEkGWYg75OXy+OPbfcfXqsf9GB3HKvp+SUAE9VV+Mh4AeKrdwCx3Xz7m/aP4n1YQRwyMwraRIYjs4+dnp7BZ2B4x1DSCch+oSTZDb3l+dl+dJf7MJ6H0ZXuvpdpBuuvklRXzno/wBsWRp0/OzjHIJT96I46J9d73VjUvtqyc6Ms05sccf/AMkmxPotpz42bZ/Vk98yJmwxvmmIZG0E7leGeOmganPmx5Yj5wsyk8fbpfcfquKl8Y6vLJLkjImY+iOGzyyuaGs5M5JyiyuLjEbd6PssMub7Jpc4rHpn2batk+H9ewGZDZo8ebaYhvHzOP8ABvfmNvc2vodhsDal8peFfFGCPEemRGbJZjRODBQF35/9gJv6L6nhmiEIkE7HxgbyF1j8108V67Y5zVTOIsX3WPr+uY+lYb5pJY+MdGly5/P1zNnz3jByGFjCQIoj0Z5k9N/Nc39oWqfFYsfPxxE90pDSXX7pcnN442xpxcXndFqX2kSNa90DGEMFEixt5ELlf/UebE03HhfKI2MjFBvf0v2WXDhR5EGRLGI38B4w0yfO4ex6mt1554jE0/HKyUHHEh4SBuPLZcHFzcnJl3XZyfGx456e9+DvtNk1jUoMGTDG/wAn3O/QdaXpmNlwTmoZWPNWW2LZ7+XRfEePlOxImPY/l5EZsFp+cFd/4P8AF2TjtY7ElfiyRD5iJL5j+l735916E5rxzdcWfFu9PpnWcWbL0zJgx5RFK9vyyHow2PL2UOjy4xdkNgymZMpILjfz1XdeE6z9oOuZOHyn5JfEehaaMvvXdY/h7xlk6TrBMcRklkaYXcJN0R5i/wCimfLmeXUTeKydvqG9tk3VYPgzUczVdCx8jUWNiyCBxNAIr3sXa3l2SucTkyTU7d+yAXCipOAnpKgLv4jK72nq9+hTSHhMXq4j9P8ARSVYCIdJrtq7pEoXAd9ilte6ZCcZBuCiZOaoiz7qNx7IR1RqVW6sxODtj1R0qrHUbpT81u26nSpRtRWoxKHOpTVuoqyT8ISATpghGPNGGeZTA7qS1G1SB5dd0mxhTQt4jsrHw5GxU+bTSgYhaiczyWhM0NFA2VQfaqdosREKMjdSEoTVKu2SJJqcjdM7YbK5S8S7KNM+X5LpOntFhWvOvtP1DxJp0mPlaVkjH06IjmFtcZPlR6+nmvRHLjPtSw26h4aMAgypJQ7mRSQNvlPA6kdx1WXN/wDlWM7edarm4+rPiycduTLkw1HPE2QMDZHvNkmtgdugK2MfTtX1GGTVtV1jJGAXctsGPHymPZ/3k8dd/wAlwGl6d8NzXiSYgtZcjrAkPHe4sCwfyXYR+I84aUMKEsZFRJ4hfXovJ/1cfHlbXdjxWzpzPj3w/DlyaW7CYI4HwvM0oyHyGUh+1h5J6f0XI6tkY2HEyCGIljNj81LrszBmzeUHzEEgniaf3WL/AMK5uXMQB/y9U6Rtn81hfkzly3fTpnDZGPp+LLJj8UYa5hcaJHVJddDg4eBEzHeYmuaOlpKP9MX9VeLvx5G8I4DZ8+6jIINr0+eCG3kYsdkC7Hl39Fkf4Fi6lkFwJhurHYey9Dj+bjl7c9wrh2DiPQpq+i7lvg6nMDMgMeOpPkf9FQ1HwrJAHugfzTewA6ei1x+Thb1U+Fct2SojzV//AAvKa41C89unRaeP4Xz5sh8JiO3U+iu8mM90TCuevh3YVbxsuaGRjmOsjpYXa4/2ezTxbylnWvlU7vAnJEYkk5h6U3uVjflcXra/qy/jl2ahLMOOUE72VuaNq8PxQEkEY3JJLdwtE6L8zIowWEGht+q2tO0KJot8UbJOE3YXNnzcdmhjjltjZmu3E8xsMg6AV08q9Vz2pZmbM8uMcjAewGxXokEePDLHjiKIhxJB4d7SznMjjIkhD2NO1AbbLnx5scL1i1y3k8qZpOo5rQYoHv2/EN1pQ+E9RjbI6Hhe/hB4b7rsPiS2aCHEiAjcaBaKqt90c+RlNdJJNGGMFEFb/wCrO+mf1ubxfDet8hnGWNZId2lwVfJ8K6tjzxENMj5R+Jp2bv3XWHWX8DBDGyzbFY07UTNlMDwWRD5Nu9dlH+jk9rnFHnkfhnWHZjomwHju9zQoreGoeKtKh5Aysp+PbGcvmEj2ryXX5QdFKGxgsI/m6gocn5cUcD3vl24jW1pT5ty1uIvF/wCM7TcvxDmSc2AHHDm8u+m13/VehYunzuczI13ly8zgMcY+ctPfboLpebzaxPDCIoHPIGxW7oua6MU/JkeANgSs+TPLX/jThkldDJpuDl6iWsieS1r67AEEV+fT6LyDxzG7G1nJw8eMlkh5jRvsH9R9F6RLqjjJfG+3D8Q7LKfnY5zg6bGiEgJ+8Irqjh5vru9L5b5z28obpmY4gBry87gcN2uv8NeE83mcU8YiD27X5Lusf4eKQmPHu+43tX4sprpHt6FmxWnL87LKakY/XP1yU/hdkMEbGZexNEnavZV4NAbBMJRLzXxOD230PuuwxoS7jaWEsskCr91UyNFe62wxSRiqsDtayw5s5+i8UejfZprWA7BfhwvyPiA75nZUnGXP9CSSQu/+XzXhWFp+RiSRnHxg18QBjlc4d/Rbs2frjnRNhzQx/cHuPKv3Xp8Xz9zuOXP4vfT1hqdpFkXuF5T/AMUz4WWz4jUYpBHdtjuQ39Fm6n41kysuSaNsoYY+Xy+ZwAj1AXTPlbm9M/8ANd+3tTHX0Ug3K8Jw/G2rYXMMcrCHdpbk/qrf/qPrgAo4vvyqWk5pYm/Hr2iZw+73/mH7qSxS8S/9QtddX32P9IlcwvFPiXVjK2HOjhjibzJpREwctnndI+6H9FewbFD09l4bl69kCYiPWNWyT3kdkGNh9gFUm13O7ahnCv8A/VJ/dH3QfRXu7REXkMO9f5j3RUR329V4D/xHqFU7Uc72571Yb4u1SNvCNSzPfmkp/bB9Fe6A+afiF9V4Y3xhrDQa1PJPu61eg8SapqmD8Dj6zNh6pI77ued33b/+gH+Q+u6d5pC+jJ7QHUbU0c549+i8Ag8Y5+Hny6drGfqOFqER5ckUshFet+vmumxNd1BsY5ebkEEbkycd/UrHL5WM9xpPjZPZLCfbzXk8XivV4YwOdxg/zEWq3/F2uulIE76PfhBAWF+XjO1/Rk9c50dElwACdmRF2kC8RZrWt5uWIrkeGjjc4x8DKB2/VTP1nOEknOyywy7uJ2A9QsZ/9DG/i/8ANl/Xs2Z4jwdGZWVJb3bgN3JUEvjjSpIw6GUntRC8c502fJ99mxmRpomR2/5KxNpeotaDjwmcHYObsP1XJn83O3qOjDhmu3fZPjjAkywGF7Ae5Cuw+I8KWFjzLVn8LjuvMm6LqFs48GQcA/FRN35KzF4ZlkLHGd8YAJPE2v08lrx/L5p+FlwYX9dzL4pwBO+I8wcB/FWyafxNgtiEgluxddyuIboc+5+IiI3onuqsumXOyE5I5nDfCGl/D+SV+dzy60U+Li7n/jDAMdx8ZN77KN3i3DMlU+qux3XHN0GX+TIhZXWyf7JZOjAwB4zIqJoPBoKb87mi58XjdbJ4pwwduN4636I2+LsEA22Sx+q4M6LkjD5kGRiyTjYN4juFtY+g4uJpEk+oztknB2bE7YD90v8Afzwf4sHQP8XYuwa2R99wFi65r5zIjCI2HGkFGOTrfnYXKyZcBl4IHWwjeMW8gef+iqx5kk2e/Hjsv4dj2PdZ8vzefOaXh8XCd6Su0iGYMsmv8t9QlPitijBgEZeBVHoU8bsh04iDS999QOiqy50AyTDJkxhhBDTTzZHkuK4XPtr16XGQxUdh134R3TTas7DwY9OxbGOHGRwrqT5lRY5jyg8YWXFkkAfK3Y37lHDoGoT4L5nMZxh1uhB3rfuiYU9AnymSPt0InoUHV28kkm6bqBF/DucDvYCSXhP6bjp5sZnNBaC8+Z81nsOJGQONreIix6rl8ibJc3nmU8HSrslT6e6HMk3cA9vazuPJelPjeE9uTydo6THEYv52C6sbnbumj1BpkDYWgA9a26BZuNh86F5E7Ad2CRzqA2PVWMLwzNymT5WoY8Ue9EWeJRx8UvarlEmHlv1B3GGtjLCBddSt7AE/G8ycAG5BVfH0GoWEZuw6ObH+1qTOAxcd7WTXvW4rb0Uc0s9tOORo48xcwuMnzt7DzVdspiL+M0eI9eyysaYgENmLPmJcXXsFBrcroNPe5k4kDxdgHzWE47bpXlqt4ZAJALRJIO4F9UcUrY4n/LtW7SOi5/w9nS/CEGzIf5jtQWqMuGCjCbNbmrJPnutbxJyv8FDiHKImjoSB1AX+6tP8Pz5UhaHxhhPQyelqVsxMrOCMMf8A9JNlSjH1MvL5A8R+Ue9+6PEKMPhuDEliJls0e9hHJp0MwELAOAXVrQdpmVNsxpPnuAW/RG3TM6EceDHG+WiIy51s7dfVH15Z5HNKDPDGBHESdgTx/dNsA+6OPR9OjJdGZIwTfCBY97Vx8viPFwCM2WMihceM2j+qq4nBmSPbNk5R4dqe4C/Yd91rycdiZdrGXiY80PyzMutgT2/ZV4tDbM57Jn1Efk4b7e+y0pIJS7gx+cyMdL2P69lTfPzs74bEx5ZRw/eGUbfQd1E4hvVQu+zjTy+V51VhYaJj5gLx6Cuq0MPwtoWGGf8AM5EkjRXXgY/f2ulPFLM0M47D2/J8tA15eW6x9Y1d8ExYGvfLIaob17+WyOTPrUOY/rTyfDeEZDPNJK+Mg8Ia7b8iFy2vavh6bncmaNkscjboncCtu3RbGPkZWUWCSLJhHQChRU2Ng8vJfK3GlfI4cBcQLr8r/VLHC27qbOtOYn1+OKKN0eOWQcQDm1ZC6vEzIZRGWcscVEBsY6eqvw4csm5geytuHlopnfB/NI5jAOvMIC0x45Ea16DjxsItkpN/9NqPJzMHFNTSnjAstAWJk6lm61qcWBpOPHMXAgyAX/v+ikfLgeGwWY7oc/WP5p644oD/ANH+d/qdvJbYYWi5SNGbIngjZk503wGIR91CG3kzeoB/APUrndd1ufU5iI6xsTtDGT+p6krOzMyfMnkmypnyTybukcbJVVp2oFdfHx6Y5Z7TtroEuqiJA6uUnECFrpAavc7JUSd0ziOlpwQTulRFqFrQutymjS/AUDek+qzW7zEbP9VycYElNA67LrftMBgy9LwwDwQYgAH+/ZSbkQbY/uoXnekLHfO8Ed0nSUdqVwg8RIpxTCShXkg4vnsAJnuN7AKgnbKh4vJQ8W9bfki4utJh0kB0/wAVYkWla+4Q5sfyYWpVvGezJPNn9Fgf4jqnhTVzo+uRlhaQASLEg7FhUbrI8x3C6LG1LT9a0xmi+LQ6TEYKgzAPvcU9t+7FGWG52cy01WZfMgZIxweD0IPVG7Maw08hg8yQFxuVo+qeEctkp483TJXfdZUMlxyD9it/R9QwtWi4YZrkN8TdrAXBy8VjfDPftsYuosE4+Q778wbj27rqcafBnxy3Kmhd34ZAOh7UuQx9PYIz8O5gYD/Dkbwb+9K1gB0BZzYI7jIotdX0sLGbX015dNwsrmnBmix2Ejh5cJsIsDEnwpeKDMZLKG/K58hq++3+qHH1eJshdM2WMHsHdFal1HGIBjc9g3JAaSSfy3RrH2uW6WJtZ8UQRFkOHhzAEATGQ0N+hZ3/AETS69myShuRFHGeWeL19AFA3iyHAxxMjj7/AHbuMnzBCxsnSM9uTIcHJlZvXCZjV+uy0Tv+t/B1dzbdqTYhBf3YjiJL/U9FcyzA6LijxhERXC6VxAv6G1k4mZqOFjxskxDknhtznC/9+hVhmpadmsY3IweZJfzcJoD97UnNfkc9qztUdk1hfCsBANOkc/6k9N1SyczIgAjzmQiV4BjaTs8eW3VdbhS4bXS48eBEOYWCSM0+x7Hop2Q47Ynsh08Bg24eFr9z6eSzvHL003Y4SKE5cnKGQ+F8Z6xtAF+lq7kuwsSIHNzHkEfeNkO30XTZOHFEAzCwsUSRyAlooX6i+6o6Y3JdBk/F6PHDPzOD8LOBw8yBfZF4tCZuNfqMbZWHCgZkMdIWNbDuWsHd+1BajMpnJillwpMcbitnn2C6w6RADzoI8NnH85bwkWfQgqHM0x0uA9jA/GjqnOc7YfmUTi3D+xy8Ooae4/eNkYx9guDf3V//ABjTIq5LMoMkuh8P1r17KXTtAznSvmkqXILeAcmWN8dE7HgJPb6q/i4uqOwZYcrAkjybDCZI4yHX1PGOw6Cwj69Fvbl8fWMP4usTTnuYLNSRto79iB/davxWdlzMnZpcsZJpscuQGUq783I03Ejknwnx5N8FCLZg9D5H0VrG1HKDQZm44Mo+aRruB438io72F3FxsuaEOdgMuyDxZY/T0SVGXOY15GPAHxdi6YMP5JJf8n28IjixTHRJDGnYHpa2NF0/TZBJKI2coNoyhx4b8rVDPa3kvaxtvFlorcrW0SHMm0qTF+HLI5ADcg4AT6L1bOvbhl1UsOp4ePAZcJrGSBwY4SRh5YemyoaxrLpJeJkp5g2Dr6j+6k/wduJi3PMxk4FloIsE9z5q3oY0vDnlsw5+fwkxyGM1FXU0diUsOvUPLWz6Ll5mVGx1zEMaOYSNhv3WhnwSfDTmQkiTaM2P7q7jZ02Zj8MM/KZKeAkN2lA8x/dUdW+KGQ+WbODD15biASK7XuVllw/Zl2ucnhOkmn6RkyYXLxzjveBx8MbiX16gWrLvDurHCZGMZkjHG9zs4eRTaRmZOmOfNgzY8Mcu7r+dhJFbCtlrDxJnPm4jm0SNwB3/AKKbwyVX27UYfDWo8chkwYfw7nndvIBUI9LzjnsgjxRuQT2ry3XQZWsyxxsM2YwFxpu+1lU369ktxn/88wyEi2g7AfRVZinzqfSNF1fFL3SQwveDTQ1xfRv2Ww/S9XlB44I7A86H/lctF4myI3m9XfERt1J6e6KHxW4x3HqPOJ6lreyMeLfoXkb+Jh65Cwcc2HJZ2AA+X0QNh1fKlAzjwQWac1wq/SlhyeL+bJyoeB8g3cS23trzCNmvavlgxRxRguJs8PX16p3/AIPy3+OlwNLhxZBKcmWWQdOKTjrdaMjhLG9wcy66uIYCfouZwsPWJ5GPmyIYYx1a6nv/ACH7rRxtFgEhfNly5En+V0J4B57EgLHeWd7g9RLlwxcx4kyBvuOFxZwbdFzOr6zLhyCKHq38NyCz6rpczHhlxg7KlkkiJOzsgCz9FmfB4GOHiPHwGQFvBxTOL3hK8NtLLLcYkHifmtjGXHLESbB4Sf8Awt9mZkwx48wifLHJ87RGDYHqOo/qozNixwluK/FiewhhAgJD+vRWhm40cb38+UMJ6Bo2Snxv4Jn0vQanO6R9wSsBvflkX6qcZkrW3IHxgHrYBWHk61hxQvAGRsCST+y57VfFeNGC6OEvvYbl4H5racV0PN1mp+JsbCaGiN8xPUiQBt+q5uPFzvFWpmHFa9jBu65LjjHmT0pY2j4eoeKM6Sd9Y2nw/PLPI3aIf39FZ17xKW4p0rQOZDpjP4jgfnyT5vPl5Ba4cCLy/je1LVMPSNOOk+HZXuvbLzRsZv8AoZ5MXMXfssJs2QfxmQ+iPilJFNf+S6Jx6/WO2uSO9fUp2mPu4AdlkcOQez0XIyD/ACvVeM/o213zQNbZkH5IHZkA/nJ9gsz4SY7V+qXwcvfojxg2vnUYb/n/ACTM1Nl7NeqbcB5G5Cli0893J6xHa6zWBG4OERIBvqu3+1TUOedK1SCMGCaDgu+/X9/0XBt02Pq+Qr0zw9pMXiL7PcjAeS/JwXXF/UfuFO8S/wCnlLtRlEllrUbtReR0arc+mQtB+U36lCMOAfy7e6vG4lqqR1CbtX0CD46Yd/0WmcOD/KEwxIf/AIgnuFJWQcye74im+NnOxcb81sfCxf8AxApjBFdcofklc4qRmfFTEfjf+aD4iY78T/zWrwgdIx+ScBvkn5SjVBo/iDU9ML2QSiTGk/i40w44pPcf2UuTouna/Icjw/L/AIdq53dhTSUyQ/8A05P2KMNAGxCHlgm9rUWz+Ho2iatqmm6jLhajNkYWYzrHO0kn13P6hdH/AIzkOJD5uYR/ljoH9VXh1oT4zMLxBix6thDZpk2li/7JOoVQ+E/i3yS+D9XOVxi/gMt3LyG+17PWN48b+L3W1/iU0bzTuZG0AfKLRaTq+G/LkhzfjseST5I5DASAfzqllYWojTsr4fWtNlwskGnNlsX2u12ml6nhnGZ8LwCtuYHCwPqsLxYetNJlTyanLp5jEL5JtP8AwSOcAwsvtV9+1dUcGp6Jl5YlgyqkI+UOL7vy3C2o9QhgleOGHIgIHDGYQK+o/dRZmo6Rkv4TpzGSEgihVkdDYCjWMml7rPOsO/hSDImjqruwfc0gGrGV8cLMNhjsW4Hg+nSyEpocaSYyQzSxUSPmN1fp790DosmOQCOaOYWDZhqwfa0/DH9G8otz5D5mEsmhiDb/AIZNgepO65bW5dUE7/h8SYxH8M8MlfmFvvLRERNihjwa4TuETMgOk5UPKMb/AOa1fjgnzycu/XdcxwDkR5Ukbas7D9O6jh17UBMXc4vjDbdGWkcIvzHceq7hulDMAblOjEbzXK4t/wA/ZTs8NaWZQ2OZ75GusNb84uun5eqmzFU256DxNKRzxA/J7uLY6ArzVx+pHVJWSTiRjCLDSdmLan8M48kEkUbXxy0AJOHYHz6rGh8H6tBHcDoskkbScTmF30Ow91E8dtN1FiY+NBxy45kBcCwiO6Puik/xH5GQGYvLrB5oZXt3VjHj1TTnRt1HS8jgZsZIyJGeW9G1pYGoNnlkbyjDyaBMm3FfYAkJ5ZaGOLAhwvEeUY3CbKhjBLBUoIr0pV8rStTjhDTkGaIO7wB/BYXcyl5lZyZajFkwtAq/XfZWJ8jHbDxbvB4LHe/MFYXKLuLgP+GtWka10eZG1pHTkJLpc3PxxlSfFYALybaTK35m9iksvKG8L0nOhxD98Hy1dcJ/f+yu5OsynHZeNjGSMbASE8FqllNiMMEOBgxzEnmFrpDxAHyo9EEunMcDvDivBDCeI2T3F/ovQlcq7i6zzZh9zCwx1bnRg7jopp9Qx86SOWdsb3xE8IbCI+o/JPDpeMIgfjzzQOrW8Y6dAs7L0nIh+9OS8xV1LQD+Sc/iNVp6a3TMfNinfFKLJJ5btgfZa2bq2jOje2gZa68IH53uuN+5qNpe9/GCRt+JQakSMUOIxzIat1gkCulos/Dvp0EurYkclHEhfwCyK/F9f2SdrPLnDhjxiMUeExkgKHwxoMuqYnxWLPy5YjfEd6B6kLU03wvCMbIP+I5BeSBTfkB9iOuyiyT3RJlpFgeI4ss8AjjkkO9CO/eqWxFlxZDuEYcUchA4RNEGD191TZhDBjjZgy3HGKcAAw9dh5j3SxIXOjBy81kbD1pwHEO9EqfsxPwqjqWnYE8hfkO4HkEBsIbGy/yVWWPS4uUyHBlkMbiOXzNvf5KsrqG+G8DrwyZNfO7lOFV5q3pnhqBx5mJpb4QTTXHsR33u0fd+F4Vh4uW+VtnQ8Mx2WfecdnvZ3vzWiwtnxhDj4UeMyxckEFEd/wAZXVx6Hn7/ABDseL/4y1tUPrSuZmkYfDyH5PMlJp0cdHf1HYImc/irjtxodlfEEszcnjePw2Gdvx+ifh1CTJ/5psJoAc6Wfc+6612g4BhDn4sZlPQ2Num19Fn5ml4zo4y+HHjjjs0Ywe/lXoqmVPwkY+Ri5GUyIvmYYGHYRAPulBNiOJowBjHjo4hlb39PNXMnUsHR+YGOBAJsRxgMA6f77rDz/FgLA1sMbxL0ugK/p0VeVqP+YbV5dMxOMjIALSLb6+97/ksbIlE8n/LzxTAfiIF1/qud1TEmzM0/BFjyRzOWCD37Wt7w7DladCXZeMyE8QeG1877rt9P6qs7449FjJb2oZ0OTI+O5pB6dq9l0Xg/wZJq8pnmkDMSEXNkzfgjA8uxK0vDnh/N8RZlk8rGY4macnaMXfU91oeN/EGLJiwaFoB4NMxhUkg/90/v+6Jcqdkl6VPFOv40uDHouhNMelxfid0OQ/zPouTrfom6bWiaBwHdaRNF07Jx0uk31TkCk003Fv0TuPEBsEHTySZRJ/oq0Qmm+/5JzQG1pcQAqgAkfw9fYBPQMbJ6d1Iywh+teie6OykJmfout+zrWmaTrgGQ7gxsgcuQ9mnsT7Fccx3lakaaf6KbDjr/ALQ/D79M1eTIgjPwGUS+N1bAnqz38lxwA5nB2K9N8Da7j6vif8Pa6BLHIOCGRx3Pkz0PkVyfjDw7LoGqGF9vx32YZf8AOL6e4TgYbGkDoEDwfLdSO7V0KVjyCBpX4XdbSIJNqcegvzUcvkNvJMaV+nX6oT6E2jeAAbd+qZxFWSFWyBzO26ewT1TE7d/dC5zgfRHsJr360luCCDRBsEdlXMtDicUbJD1vZGg6uDxINQxGYPifGZquIPwyO2mj9n9/qqGZ4GGZx5fgrU/jRVuwpjwZDK7AHr9FiGQ7i9lJDO6KQSMc9hbuHN2I9iloFja5qel5j8bO5uNkNsls0dLocDxAMhzxkMiY8UGzRHrfmnh8UHLgZjeI8OHWMQDbmipmj/ok6qrP4KwdYufwNqnBl1xnTcw8Eg/7D3UXjxq5bHS/FNbBcE2wd/Ea2/1Vx+Y0y8UkhsmyDsB+u68tOua14b1D4PWcKTFl3tsgNe4/uuo03xBgZsTBG848pAjjad+I+p6rny4ssWsyldR8bFM6VvE8BgAA5ZolFysVoYJOPgeR8x7bdlQw5ZnR29kdEnfmWR2v81bxoqdcMPBJWx62fJYd7XpbZzonAYsrGB1AursB6dVcxMudtCGcDh3b8tAnvaznTyxZRcYo5JOKvvNjQCm+KdyX/FMjMnUO4eMDftXdEqt6XpcjJhleTK/IBF3G7qD59vRBNr+pwEMhgYWA2KcWEDuQqjs7ik5QlhA2IEbt7HUcG5/36KZmr5Mcu4kkLj0iLaaPQGijLHZ7kakeZqE0hczAMzH1+KUAAexViLJlmD/isMc+P5DHxCxfZV4c7Jc/Hcxr5HsB4gYwN1A/inbLOYpZJCa+aTawPROT+i5A1DIbitlczCmYyT5DI0WP0WO/UsmKQPwpuVER/CmhILirjIYsplwfEYskMpI4iWHjHX3BHQopvh5MYyPnZkyAANsi66+/7pZccvWxLYyY/HeoY7BE3T4YwP5SAf2SUzcZ8dtxMLL5IO3KZ/Xfr/okp+uD7MnnWj6Dl41tjlkMbjZEoo/Uha+TpuWAXYofwCyGmU72Pb0R6lrGlxauzHmnyRHNGJIsqOQ8Jf3ZRFjt23UmNqeMBJ/h2ZIyVuxa92xo9vk/3uu+Y23djm9TTCil1DCjLyebHG3+FyXEj6jpuuezvEUeaZGyHkyv+74nNI2vckfmvTOVkZGMbEcsoNcuqjf60mydLgyByp8cxv5f4Wt+Rl3vZG601EPO8nO0YY8kUDX5E7pK+JksNcO5DAfJT6VpEWvahA2DGAwom8DpgQy9upr8ZvutPP8AAROVJyMmN7OLj5YBFf8AeaobBWXsyxGzCwJWAMaBG2CPjYD9B+qy5M5h0qTdbuM2DD086THjmLltEZLQLk73fULHdnOx3PxNOMXxExAdIASR26+39FveGPBGpyYpdl5kOEHbkhvHM/e9/JdVpvgvScdrH5oOVPId3H7sb+g3XPlf4204KIvhNsEmSXkBohiuvSlsYGh5kmSZxpmNF3klyiAWWPLdegMhwsJvLgbi40dUGjgH72qWqahp4jYPifxDjAbGX3XoFj9e7tdqHC0iD4QgZh62OVDy2B/5bo4cHJvfMfICeoiZfXzO64XxD4qfA/mQ5GRy5WirbX1TYHiPOyogTkyFnDs0x0fz7FOf8XuId5q08+C1kOKyTJll+QSOkDA3+30UQcWwj4icxcX+WSxf06rhNTOsagWN+JyjVAcMgBroO26mxsDUJ+OHME0o5VNM8hYBXU+avfY2ueJPFY07HIwA7OLXFhDSPk89vJc3kanquRivdzXxyTO+5aSQxhO97d6sbrpY9ChdZeHve4XJezXAduyOHR2Ru/DzQCAC6TZv0I7bInJfQs24SXScyAxDKkZNKd5JTKIwAfMnqlk4Ol4uOXZc/NyBbBG6IvFeYuq912+ZiwEiSTYRN/CBZFeR/Lp5LiNfijnzmNwskTQMF8uM0Gkf191ctt7LUgjqcsjY26a1mLiDqW/xHn1PddJ4O8LzazJzZi+HTIv4kpP4u5AP+6WZ4S8N5Gu6myJm0TRcrm7iNi7X7RdZxtJ0yPw7pIDGNFT8vbhH+T9ytZii1jeM/FEM8LNI0Lgh0yLY8O3Nr9v6rieIX19kLj1O1lM0Eg+a1nTMTaJUjSKpRMB7qVgFkbWmB+hISIHnabzNIbHTp69yq2VIi9xSZgABKAmtiD6IjZZ890rIbTe+1IiegB2UDNn9Sj3G6Ak2APzBA813SaSBubQHcg2p0E7HGv6o2mzuFBxUEbSUrDi1HK6MgsNPHcbEL1Lw/rGH400r/B9b2zQPu5RQ46/nH/X5juvJ2u/NSQZEsUolheY5GG2kdQfNRo2r4n0TM0DUDBlAvY/eOUdJGeayw7boPzXqGg67geMdP/wjxA1nxnWKUdXHzH/X6d1w/inw9leH8vlzjmQP/hTNG0g/YphlNPXcfkgeOLvf0TgksCXFXZBIWxgijv8ARBywa3IA6qwQa2UZNUOqdCLho9DSVHg6FG8E9kO4H9U+xtDTQKNoflaKJPVTuII9lE8db7o9jYbB77J+4ofW0O4O+6ewdynobFuOh2UkbuEhzXFjwbDgdwfRQtodN0TfRAddjeK/i8T4DxThRavhVQc4VM32es6T7P8AG1gPm8G60JXj5/8ADs35JR6A9/dYjDex6o2udE8OjkeyRu4c00Ql2Fd+XrnhWY42qwS4/LN7xmr7EFdLonjXEmYxsjjzLshxDP16fU7q9geNp5MYYfiHHj1fDO1ygc1ns/v9VS1DwJ4e8StfN4V1FmPl9fhMr5CPT1WeWEqpbG38QxxAe+Rkh/la4cYrvfTokcMtbwx5Mkha7fmOFHodgF5tquD4q8LSsg1GLJZjxmqjNMI/t9Vs+HvFLPkgyMh8hqqBHU9yOtrnz4LprjyRt6pHmmYAY0WS+TcyRSGMu3791Xmzc2KMxQwx/d7ULL6qt/VauHlukD4oXsMbdnGM7EnvX7JThpdwyMuS+PmNFij5rC4NZdIsDUslsZbIz7zh/wAxv8lrYWqSNhDWGVjAbJPn7eSzOTjzwvbJF97wi+Xv+Xv+yqzxQxYz/gP492b8x6E91G7D6dR8ZNC0iSUSDuZAAa6noVJeFNN8QIozy2l7Tyw8k7fOenRctK7Ilxo6oyUXyQt3seRKs4rcchmOOXFxdAXU/frsei08rvstNo7AGPOz2scOIBhFb7+XqkoBgwV8nxPD24ZNv6JK9F5f+PN3+H9Qymyz6jDMXxOq5ZOAA32HUra0HQs2SN4gxcjDDwCJpmkg2f1XqkOHg6djRwQxRh9jfh3dXqbP5lR5mcBEHQRfd7BrpLJI7j2W/wBuVR9eM9uNzPCuQcLmaln5AkeSKgtgjZtv52sSHCHxJGfFnTRxkiMSOA42AdfS/JdPqWtPiY8ZeOWVVEG43WNgB5jquLydZgEYc9uUK/DVsF+6c3rtn1+JZMPTG6hJkx4E0sbR8oOQ75vO7P7rV8PayZZntGDDgYzADVV7DqN+vmuG1LXPiBwgvjjad443Cx7968ljvy8iYxRYlyyyH8LZDfqN1X07nY89V7rn+JoYcYxYTMrNyKsNgbX+zv8A1XN4uqamdUfPnZMMT4WsY7FymkGNnUlhur3+vouJ07T/ABI6djwz4cPjP3kuQRxM77XfddLoGnxYWombNLMqQxEcMTfumvB8zuSOqxuMwl7XM7bHSO1PUJ5hFpOPjyYT6LssuPGD63tfTp5qgfDGZkZ3NyM8VI0AiKz5k7vPT0W1FK6Rz3lr8eKUU6Ing2HSh2P535qPJy2tpsdcbjVx7eg6rLyrTqqGL4Z0jDifDiyvORHZDg4PIG3mtXFhhgMvIZFzWgXwt3286+iqh0vzkPijEbqdI6LjG17enuVQflZgcyVjoGQF1AgOje89xR6n1/RHvupdG7KbiRSSQwvPLb/DjoFx8lVkdkTY75Y8otk4f4kdcI3/AJ7utjVnuskyZAAdNjmWebblmXgDbHWx1HoqzQzDEpyphJIQS1pJIZvvdbfmn/6mVrPlkjZHxy48jLI4g702O36KGbU4W4sYnyYjPyydugH+6/Vcjn6pDA/izeXkcbbJjj3aSf6VssebLbNNK7E2BdUbXbm+p+i0+vfZbbWra3kTxvx3hgo8B+Xp7eYVHTMSbNyI4ceHmySHgij9VTkdJJJRdxkAkk9ivZ/sz8Nt0fTDrGo/LkStuPmbCKPuT6n+iuY6h29LjvhvAHhEimSZsgP/AP1l8vYX+nqvFcyeXLyZJch/HJI4vkJ6k+a3vHWvnXtZklYSMSL5IGX0Z5/Vc2DZJr0WkZbor7iqT1ukwde1IuDrdg32VEQA677qZnQIWgAbf1SvhegE4bHyQt37oj02QDrfoqhG7ojudyh2vcD0R9WHpt6qyAwgFG4GkBAvyT8R/m3Ug/Qf6pvomcehrslxA1236KgV711UgcR0Ubx9EwIrr0SoWOO9wjZueigFXuUTXAbKD2tQvdFKHMJBBsEdl6Z4a8TYmtYP+EeJ2sk4to5pNg/yB8n+q8t4ip2ON3tSQ9un8YeEMnQZXz49z6eTtJW8fo/y91y4PmF3XhTxt8PGNP1u5sIjgEjhxlo8j5hWPFHglroTqHhsslx3jjMLTe3mw9x6IDz4ntdBNQvp9ULwYr5gI3rfzSd6HfyVwqYmgSDajG/VSdPQ+yZ7f9hARuoFD1RdENGqsoBntsWo3trrt5KWq2SvisEKgg3sdkuJ3ekRbW4P0UfCBdmkAfFXQpwbHW1BYrf80bTsgJrFdExceoJtDYISbXQFLQdLpHjTVMGE42W6PUsMijDljjFeh6qXL07wX4mJcC/Qc943B3iv3HRcr3+ZJvXrR7I0bVz/AAX4p8PxjI0uZmdhH5+ZD94wj1pV9N8aTYUrINRwmRGyb6gn17ItK1jUNJlEmnZs0JBumu2/Louif4o0/WIuT4n0WHIJ/wD7WL93J9R3WWWEvuKls9C/xrG1ZsgxnBjzVCMC9qsge6kdBE7GiZmkSSAbucaLiN7NV0CyZPAmk6tLzfCmvCLI6txpzypB6eRWVnYfjDw0RHP8YyM2Q7hEjHfsss/jy+lzk17dTDhYTYSzBecY1QpxNjv9SmGlmSZ8z5mTPIoczYt6dDXVcvj+L5pJg3UseMbWSw0R5V/5XS6NqeNqb3lkvKMYPLBcT7+3usc+OxpM5VyeaSB4idPLbRX8Fz/1vdJGcrEocoOlZWz/AD/NJZeLTbnpPE0ruD5gwkcYF/d/l3+qPH8RNmaIcQSTSg8DWtcAxp6/07hco3wq5xLNR1R+NIwH7psfG9x+hqqW7ouk6Hjwtx8OF80l8UuVlOc30HAB0G66bcNdMNVZ+L1fUdLy87Tox8PjzciQH7x5PcjqAFjYWF4mzdQ44xqODjgcYdK7gBHffvv5Ls8DTGY8Uvwojxsc7GPFicy+1nff6/RX4pBC0xPlMsUXRvDvZHa+qX2/yH4f1g5+gY+oy44yj/iMjPxSSbGu/a+vcqzjadDiB8UEUeO8AycyKMRnvsSd66dFvsDhJJyw9hc0Eta6twonRAh7mQsD9iD1/wDKztt/VMxkbZouYwySiSuISO/iX3G12rcGIA4tJjHNPyktPX/f9FajI5nNLqJvqNgPT6qtiwtkmuN8QxgSxx4eN9g9Rv0oeSQD8BC59MdEyxwAVxjc+fXdSTYYmxopcENjAlH1I26b7Uf0VqXmy8ckbGsY5v3ZiAOx6GlVzJIhiR/EAxhp4xyQeMnqRtsAq9gzdJijYwY8Ty++AfMf6d/qmEsGmsgc8bOPBG5sRkI6joPbr2U02dE2bhk5geCCO5A6+dErK1TLhkiPHkyRRQi/liN7+vn5JybG9Dl1MNklhmOK+eN101tUSNyffrS5vUNYwuS9shMk5LxzYyWCuw9f9hPOA2GR0nByyeW3lmjv0snr5bdrWGYIoyOXKySTmAOicNq63XceyrGbTYhmPxBMs3NMdkkuoAE+w/1RNA4gWECQ7DtQU8pe0FkjgQ4B/CHdB/r5J8dhnLGwxcb3SbdySdgFpIPTrPsx8NHWNdEs7bw8YcyXfqezPzXb/bBrRwtMj0qCSp8occvD2jHb6/sui8L6TD4V8MBs9cbYzNlSDzrf8ui8O8SanNrOsZOfM3eU2GkfgZ2H5K4yvtl3v6JMcAyqtJ/ysur2/JKrFVVpn7LmdLG3mpQOwP5pmgVuNlMBYsEJpBG3r3RvHmK90QbY7WkR/mG/qggupooBR3Z3AUtEmlH0d227ING43sKKQOwDuqJwNbivZM0Ancf3V/hF1sEAeqPsDQKCuvcDdJhrbsd+iAI79R+qFux6fmnIoUk6+xqvVURr7D9E1+ZoJrs2hJJb0QEwPFf7J7qzvSiBIGw37WiaRtdfmpNM123mpWUO+6gaQWbFSB1G91IiYOrp1XR+FfFWZoMgawmbELrdCT38wexXMA2bKJrgBW9JG9X1TRdH8ZYj8/R5mRZvRxqrPlIz915pqemZejZpxs/HfC8dB2cPMHuEel6lk6bMJ8GZ8MvcsPX0ruvSdH1/SPFeNHp+u48TMv8Al4tg4+bD2KqVLytwBqqQOBB2XYeKvAubpJfk4Afk4Y3Ir7xg9R5eq5RpDib6+SYQcvfZBTuisFvkUJ2HQe6oIShaApeGhYQG76EeyAjc0DcIDRb8wtTcW6ZwsndAVnjuB9EFEE9RatBuyjc4gmwfdKBX4q6ir7hNfqCpnDrsonRm/wDVVsD4tt/pun6+SiNjtYSD6+iAlu9tkrKZrhX4R+aawen6o0EgcbG3Tdb2leLdX06MRR5Jlx7/AIM45jD+a57oUtut/mp0Nuxl1DwrroLdb0Y4Urt+fiG2A+fAVTd9nmNlPGR4V1XGzf8A6JkMcg9wVzXF2A36o2Slrg4WyQdHA1Smw9tDI0nxNhymCXBy7b0+S9kldg8Ya9DEGRanlcA6WeP9aSS8arzregme4l0HxhEY6NpjDfsN0+Rjy/EyGaH8Tap0pO3n5dVdkkbiyyEOmfIBZDQaG90BsPokzK6iAxggdXHgkB866eey4e2+0YcSOdkN5ce28Md0KoHa/wAwpoXS5TYweON5BeHEin7/ANrRc0RADnvMnVpi3A29RVdr+igmiaA/nGTIMgoygfoB6BV2W0ZzY5MnihilkY4fxBGSKtKaaXmPMEr4i9v3Ird9Vf5qeaSEx4g4JJXtoloDGUO3fe6G6rN5ksBx8iUl9PfHy4mjjAN/lX5oIWTNLDxiDDfkzk0SJAWNPlV9P380pp5Y8mASMDJZoyyjKLBJO1hAzKyMfEfKyN/MEYfYAZHXlR6kbdVCwnU44IZHvwPvQ+MF18bzex6D9giBYzJji6XPTQ9kkTwRJJRsefc369lkfGfCuDpDJJkxtZwyyE/n+tbAha2oQ8U4dDBYliEchkPGCK+c32v2odEEWEYhO+ODgYADQsySbDYHvX6o9Hds+YtblPuGQxCgC4gBh9D7nr1We/TcsvllnD319yGht8R8qvse6lllEshIjmDYp+A/F4pYS8joT0q1ZZj48eO+fHmx2MjaRK2UyMPrQA3rsn3D9xi58+HAY4oIi97OokFeYINdP3WPOefOWMilx4yLAkovG/chbuqZmN8MyGA8GWwA0Y3Rvo9Oo3IWI/7tzzxPL+5Js2rw/ib32FoBPCQB5Vt9V6L9lGhDN1p+oScD8fCNi27PkP8AbquFw4ZcrJihgHMyJXU0Adyvonw7pkPh/QYMMEARtMk0n/X1J/35LRNcx9rWs/CaNHp8ZIlyzbjfSMf3XjRNmzdLY8Yawdc13JzPn5RJZECekY6LEDuvU7JyIot+CgTSTQbG3qhLiQAKRsFbgblUSRtV8wtFVD+ybcCwd07TYF9kBM00LHYefRBdbhLbz2S2I3NeyQNfFvVITu/5t/qicbbsgcAQaTBnbfVAKv3T0QNk915WqlInGmC9kzQA4kF+6Im9zsnf28/RPY2Gt9t6807hTOg9FG51H1vrfVSg0NzXrSCQObR2Ir2RcPDuNz5o7r8WwQjffyR7AaBsH9UgSB2RO8uqZp+fyf7KTSM3N0a9URvcmz22Q2CaJSadwLPXqkaS+w80TSPPofJDY3oX6JF21ICUOF1f6KQOobKuwkuPVSHpdJB3/hbx5Nh8GNq3HkYw6S9ZG/3C2fEPg7T/ABBB/iWhyxRTyfOOH+HIfXyP+6XlF1V2fRbfh7xHnaFMXYklxuNyQu3Y7+x9U50SjqGHlablHH1HHfDOOxHbzCrvHpZXr8OZofjfT+RkMAnbuYXuqSM+bD5LgvEfhHUNCe+aBpzMC9pGjdv/AHhWHM0Wjpugeb7I7EgsdB5JyGjgoVX6pbCvvV9kJBG6sytvtuULhtW1olGkDAa369SU1DzUnLN7Nv6pm+R/JVskZbuT2UbtiPlJ+inLR7EIXir2+qYV3R7X39FGW79FacCR1F9kLQKsgX6KbT0q8JB6deqTB6/Qqy9ou/TuFA+JoeOn1T2NEHb1fVFxNIN7KLhr+akr6Cx+SJSHw9wRRSojqFHRF+nRJznDruqAnEk9Ckk1xrcfqkgO51KJ+Zpsfx87ImWedJESeKjvXl0UmBC2HGkMLTGTXCeYZCSPaj0UsOotLpHQDHLHcDIjZJJuiDZ362SpWQcM/Mke+N7WkcuMmn7dh1r1teduunUNK5rppNSkJfxOuR3FXFQ8h0Hbojmlnyog2SOIvkkFHiJ4WHyqrP8Aos/A0/ObkmWTIxxjuAfFjiPgcWD/ADkkf+VrGHAjyn8+KJ8byABDG5+/Xbfqe6BPSgyTHwoJcid0ZZG0vcS0cY7UAO/v+pUONJHrML5oAIckSEtbLYIGxFbd+61I4eYZ5X4b3wTmgJomgxnzeCeo9e3ZX2ZeFBKWzSkSvriqN7y6hsB1r9rT2SnpsMOZj8PxNycwF1ggCjt16hWmY+OGSwxhsvIcXhrm/wAU+ZJ69/zTNjllfJk5xAgZ95EJWkkE+u3RNnZ0GIWOmyRz6ewySNsOPkaPU10Uyq1FpsGPJlMjZDEZJW2W8ovIIF9Ngfqufl1B+IXz5RyZOBwZEQOC9jtZ6jY7DyUeq67LqEsQfjZMXKNjkbFw2FEnaweyz834jTcWR87c2SKSRgb8WAbHBsRe4G/kqk37K0GpTtlx4MfCjmvI++kmnHA2PuAe5J6/0WLqZ1WTT+Y/NwpKNgykmTg8wCL79PRRZms58sj8iHTpYsjh4HTCRzLYwDz9+oVKxkZR51/EdHWSSwdhxnrVK9XXpNLGicyMyPsyDZpduSFNC6SM8fR52CfrJdjyWnoWmzatqGJhwbPmdwCuw7lVJrsr/Hd/Y/4b4pJNbym7R3Hj2Oh7vWz9q+uuwtHGn45AnzgeKj+GMdfz/uu0wMeDTNMgxoQGRQR1d7UO68C8Z6sda8RZeSx9wE8EN9mDoqhW6YL2kdDf9UYbYAsJAntueyNwIYCDv6Kk7A4W5hBAI6UmY0cYPU9kj+KunqVIwA9ymQ9632pNvVomjvsAkwG9iEgNrfuwdgUG9/RSONDdB1N9+yAa7oHZC+waCKwCN6TE7gdR5JkAOI/8Jyfm2N+yZxG97d0q8vk/dEM9XuSPZN+H1TcyjZF+qRLnHhPZMgOt3S0TLJ3TPdR9+lJmSNJANgp0QdCt+iVggV1pHQLPmtMy+m23opg0EgCr28kDh2/P0UpaLujfVDQLyN68vNMBo116dik11bWEb2keRvyTUW/6pGc770QfRIdyQb7boWu3oUld736bd0BIACa3/NGw1fX1Kja7ffojae1+qAsXxCmBLy3VcHyJHmFK2UHrv7JUJ4JnRSskY4xyNNtc00QV6H4a+0CmMx9caXiqGS0f/uF5x6jolacp6eqeIPBmn6zB8foU0WPLILBj3il9wOi841XTc3R5+TqmO+In8Lv5H+xU+h69naLNxYUxDCfmidvG/wCi9J0fxNo/iWD4LUYYop3D+BPRY4/9BKaXktNJsFA5pB2NrvvEP2cTxF8+hS8TOvw0p3+h7/VcFkxS4s74MuGSGVp3bIKpLQRnpuUxHEPZPsdxW46pnGhdqtgDm9QNwO6GxRCL1r9EqHe7RAgO522QvNXtQ/RSkfebdQgYTdHqf0RYYNr6H0CahsNyUe3YHr1Qvae+1I0C+Vx8h7oDHxb2PRJrRu4VZ67JwO9UEwjc3hHn6oNxvZKmI6GjumMVn19EQtIdu9fkkj4B/wBaSoaem42LbxA4SREC+ExUQzzPoSrGO6YZV8kRM4iwcLdwzpv5nr6JoIcghj3teckN/wDkJ4+9eXfqpcyQwwRRcVPDXvlc3cX5dd/zXn2ujSsScMTunoQMc88LnCvIVtxn8+6Jk+NlZmNKYBv8/PkBBs0AAyv0rr7ocR2mZWZHkQ5UYMnBHKIYOMys6d/XfbyVj4iWaXILMeSXkyE87h24AeAf/ed+mwTkMpuZBzZRE1j4wTUklWCe47fsq8ss3KfJBBC/rw8oUQfMfQkq8yYZUI5Itgds50Zu+/b09bIHRQ6hP8PisORmY+OyUDhEzaJN7WelkdkoL6QZ4dJE+J8s2OxzQTKL4yPTt9eqpP0/Lm0uSWSGWo3cEMxHNew+t/j2B/JVdWDJsoxTZOVjc3aR0VgUPI7gde/lsngnw4nVPkyZOQLjjHOJaPID9LPonrrpOzwabHjXJlyy5OJJKI3OlJ+9kFGmUKZWxvt5jorubhae6JjJzCWQnjlq7odCNu3mevosqKGeTJ5TsdkmAw7NlmIZED14D3F9BW3fsq2byoNOkjkmEbGAvby4tiew3NbX1TG3O+JcuDIzeLFldNjtiIi58xNb1QvoQd6UeNjiGM2Bv5DYeyhc1sU2M1jzKQLJc3bfr7+4Vt0hMfCzgIBHX/e6099JSshJhkljFxRlgddDr0XqX2S6PHHjz6vNFwGT7mE+Y7kf0XAeF9Fn1nUIseCLjreY3sGXuT/ovesaCHDxmY+O0sx428DQOgCLfwRzf2nawNO8MSwMfWRl/ctAO9fz/wC/VeH9ht07rpPHuuDXdfkkjv4bHHJiB6mjuVzLQbvoqialab8kL7DN90e/l/dBKfu/kANKkgb+IX5I6+YWUBvd24NBGOtV17phOyjfon6DevWkDbLC4AgX+aIfg2+qAI0BZP5oeh2CMja0G7Sb2SBnV3/Mp9xuk42e9prsdd/JMgkWb/qk3cb/AET+gtO6qPVMAJLj0SPUHr7pdvVCDt3KobGaO7gCbUZFRjYeoRN2801gehKKDWYiCPn9CVLfkO6i3oBlX1FhEyT5iL3SoiSxxVV+Sb+Gyhe6H8IsbX0BO6JtVvuFJmJsXZpRlvECO1dbUpFHhGwQhvLJPY9kADRQF1fkUuxHT9kZqz2+iCiemxNb2gCa3hN7Hz3TsILwL90zngW02B2JQ71QAuj7oCQE9hfqjBFDirjVfiskbjbpVo93D+6QXGSee3oEtjbh+aq8RI3PfzUgNg7nrW6X6qJXHegmvomG3b9OqegLuuqey07Pwx48zNLAx9R48zEGwJP3kY9+49F3M0Og+NcD/wBvILOhaeCWL9/2XifFw7gdfPdS42XNiTsnx5nwztPyuaaIVbo06bXvAWo6WXv0683EH+Vv3gHqP3C5M1ZjeOB7NiDtS9K8O/aM1wZDrsNEbDJhbf8A+Y/cLoNb8L6L4oxfiIXMEjt25WNRv38/run0l4oQBuSgomh+hC6XXvB+q6MXvfEMrDv+NFvXuOoXPcIO46BHo0W221FC67vcqQt4TuEx3G/6KdhHvV10N15pnHrtR8lK6u90gffbqmSIgHfdM8dzv7IiD32Q1vfp37KjC4cO29n1TODmgg2XonmwU1AdBt2tAM1za+bqkiPvw+iSeg9VxQ6MiGfKPGSOW0UDfr06efZHJyGwvmyzDGY2kueQCRvsSP8AdqrmZTsW5ZI2At2kbQeQbqyT3/usyHOxpMsiM40OTe7S2zXkaBqq7915+9ugc2rmAcU0bMLDjAZxGN8Yls3e+5/PurTZ4p45JmOiyY+EETOI9aLKOw69lk5h+MynsyoRNEJOYZJQ0xggbcAeSa38lAIQMGT4eWSYkgGQuA5V9K9fbYJ2DvbUjzMZ0dmePjOzoXNDObGT3utxVfVR4ckMpGY+LIMfKMkUUhoxhhN+f0/8LMw9G1bLy3xPxoxHltqom2yPfzq+g7LYGn4cLo+fkSw5EsPLAvjAeLrj/t7I1ITLmdLlYpfRiD3CGmuNAXYIPY+ZPZCMSCHL5OKwxQCUx8XMB5hsWbJ/Bf8AfdSc6XEilmna/KjLgS2OQDmdreL2N9guX1LWZ4JHxx4MUb43VHzpDKW+Vg7Wqx3+CtzW3Rwcxk04leTwB0Z5ZJ6WPZc7PmTyx4+NzpJjCDzCK4iD1s+iq5mZmyuny55YsY8Ifw8NGQHat+3dBi8oxkx82SzvI+tx9PW1euto3KnxhGJHyBp3269FaioSB7ODruT2Chi324GMBbdn+n6rqPAOhjWdYZA9hfBHT5nX/J5fVV6KvQvsu0L4HSTnzisjL3aCPwx9vz6q99omsDR/D84YWfEZQ5MY9O5+gXSUI42RsIDBsAOwC8N+0DXG6vr0hjkvGxvuIh577lTPY25zgHeq633Q9XdE4JFDuT+acE106dytEhe7uAfRJrtv7KSUEknh2Nb+ajdTSePr1r6pwkbXm/c/RTMFVRIPkhohxJqjdeae+wTCSwPK0TO4NIAQSdrT0TY4QkBXvZIH1TkdkLuo3TuJNd62QDWT7pvewm4gOiXFt0tME+k3HQ3Sf0vugiv2HZEI7qr1Cfpv690Lut/p5pz13OysaOd++yGrHz107hLoaFBMSa3QKZp7Dfv1T1ZqvqkW9xuioEdN0UQLgfPp3pPZH5dkdjg69UDr5nQUe6g0jXF17mq6JvIbpuIVXfzQ0bOw9FUBCr9ET3B3QIXWK6+6QNDqPojQCBclbAnzUrRTgCdt/YoDRGw6d7TdOu5rqpBTNr27pBwA9/IotxZQuaSBXvaNBIwjgvY0dwR1CK9yL+irEOBraj1tSRyCyHk9diloLbS01tv5hFRokA+19VV4i2TiY7bytTMm4raaAJ6+qRiq7q9/NBwng617qXYVVV3KY9qHugI2kllb9LNLU0TWc/SJufgzmN5I4mndknuO6zXEG/PohFt+guwg9PYfD32gYGdwQ6kPgsg9ZD/CP17fVWPEPgfS9YIyMUDFyHb82Gqk9SOh+i8ZYd+HchdB4b8XaloRDIXibEveCQmvp5J7LSLX/Deo6GT8XCZMTtkxgln+iw27/gXu2g+JtL8RQ8qNwjnI+bGmAv8AsQsLxP8AZ3hZxfkaU4YWQdzHVxH6dletpeSP2HdBW970FoavpefpGSYNUx3wns4i2O9iqW1bd1IREbdUBaTuenopLA/HVJiKPkSq2YKv8A2UfTspyL8/ekFbDfunsI79B+aSJw36JJ7D/9k=;" vertex="1" parent="1">
          <mxGeometry x="50" y="60" width="218.77" height="140" as="geometry" />
        </mxCell>
        <mxCell id="CnO6H3w86couGsOHqTWS-2" value="" style="rounded=0;whiteSpace=wrap;html=1;fillColor=#ffe6cc;strokeColor=#d79b00;" vertex="1" parent="1">
          <mxGeometry x="54.38" y="250" width="190" height="120" as="geometry" />
        </mxCell>
        <mxCell id="CnO6H3w86couGsOHqTWS-3" value="" style="rounded=0;whiteSpace=wrap;html=1;fillColor=#f5f5f5;strokeColor=#666666;fontColor=#333333;" vertex="1" parent="1">
          <mxGeometry x="64.38" y="440" width="170" height="100" as="geometry" />
        </mxCell>
        <mxCell id="CnO6H3w86couGsOHqTWS-4" value="" style="rounded=0;whiteSpace=wrap;html=1;fillColor=#fff2cc;strokeColor=#d6b656;" vertex="1" parent="1">
          <mxGeometry x="64.38" y="260" width="190" height="120" as="geometry" />
        </mxCell>
        <mxCell id="CnO6H3w86couGsOHqTWS-5" value="" style="rounded=0;whiteSpace=wrap;html=1;fillColor=#f8cecc;strokeColor=#b85450;" vertex="1" parent="1">
          <mxGeometry x="74.38" y="270" width="190" height="120" as="geometry" />
        </mxCell>
        <mxCell id="CnO6H3w86couGsOHqTWS-6" value="" style="rounded=0;whiteSpace=wrap;html=1;fillColor=#dae8fc;strokeColor=#6c8ebf;" vertex="1" parent="1">
          <mxGeometry x="74.37999999999998" y="450" width="170" height="100" as="geometry" />
        </mxCell>
        <mxCell id="CnO6H3w86couGsOHqTWS-7" value="" style="rounded=0;whiteSpace=wrap;html=1;fillColor=#d5e8d4;strokeColor=#82b366;" vertex="1" parent="1">
          <mxGeometry x="84.37999999999998" y="460" width="170" height="100" as="geometry" />
        </mxCell>
        <mxCell id="CnO6H3w86couGsOHqTWS-8" value="" style="rounded=0;whiteSpace=wrap;html=1;fillColor=#60a917;strokeColor=#2D7600;fontColor=#ffffff;" vertex="1" parent="1">
          <mxGeometry x="79.38" y="610" width="140" height="85" as="geometry" />
        </mxCell>
        <mxCell id="CnO6H3w86couGsOHqTWS-9" value="" style="rounded=0;whiteSpace=wrap;html=1;fillColor=#f0a30a;strokeColor=#BD7000;fontColor=#000000;" vertex="1" parent="1">
          <mxGeometry x="89.38" y="620" width="140" height="85" as="geometry" />
        </mxCell>
        <mxCell id="CnO6H3w86couGsOHqTWS-10" value="" style="rounded=0;whiteSpace=wrap;html=1;fillColor=#1ba1e2;strokeColor=#006EAF;fontColor=#ffffff;" vertex="1" parent="1">
          <mxGeometry x="99.38" y="630" width="140" height="85" as="geometry" />
        </mxCell>
        <mxCell id="CnO6H3w86couGsOHqTWS-11" value="" style="rounded=0;whiteSpace=wrap;html=1;fillColor=#ffe6cc;strokeColor=#d79b00;" vertex="1" parent="1">
          <mxGeometry x="380" y="250" width="190" height="120" as="geometry" />
        </mxCell>
        <mxCell id="CnO6H3w86couGsOHqTWS-12" value="" style="rounded=0;whiteSpace=wrap;html=1;fillColor=#fff2cc;strokeColor=#d6b656;" vertex="1" parent="1">
          <mxGeometry x="390" y="260" width="190" height="120" as="geometry" />
        </mxCell>
        <mxCell id="CnO6H3w86couGsOHqTWS-13" value="" style="rounded=0;whiteSpace=wrap;html=1;fillColor=#f8cecc;strokeColor=#b85450;" vertex="1" parent="1">
          <mxGeometry x="400" y="270" width="190" height="120" as="geometry" />
        </mxCell>
        <mxCell id="CnO6H3w86couGsOHqTWS-14" value="" style="rounded=0;whiteSpace=wrap;html=1;fillColor=#f5f5f5;strokeColor=#666666;fontColor=#333333;" vertex="1" parent="1">
          <mxGeometry x="390" y="440" width="170" height="100" as="geometry" />
        </mxCell>
        <mxCell id="CnO6H3w86couGsOHqTWS-15" value="" style="rounded=0;whiteSpace=wrap;html=1;fillColor=#dae8fc;strokeColor=#6c8ebf;" vertex="1" parent="1">
          <mxGeometry x="400" y="450" width="170" height="100" as="geometry" />
        </mxCell>
        <mxCell id="CnO6H3w86couGsOHqTWS-16" value="" style="rounded=0;whiteSpace=wrap;html=1;fillColor=#d5e8d4;strokeColor=#82b366;" vertex="1" parent="1">
          <mxGeometry x="410" y="460" width="170" height="100" as="geometry" />
        </mxCell>
        <mxCell id="CnO6H3w86couGsOHqTWS-17" value="" style="rounded=0;whiteSpace=wrap;html=1;fillColor=#60a917;strokeColor=#2D7600;fontColor=#ffffff;" vertex="1" parent="1">
          <mxGeometry x="405" y="610" width="140" height="85" as="geometry" />
        </mxCell>
        <mxCell id="CnO6H3w86couGsOHqTWS-18" value="" style="rounded=0;whiteSpace=wrap;html=1;fillColor=#f0a30a;strokeColor=#BD7000;fontColor=#000000;" vertex="1" parent="1">
          <mxGeometry x="415" y="620" width="140" height="85" as="geometry" />
        </mxCell>
        <mxCell id="CnO6H3w86couGsOHqTWS-19" value="" style="rounded=0;whiteSpace=wrap;html=1;fillColor=#1ba1e2;strokeColor=#006EAF;fontColor=#ffffff;" vertex="1" parent="1">
          <mxGeometry x="425" y="630" width="140" height="85" as="geometry" />
        </mxCell>
        <mxCell id="CnO6H3w86couGsOHqTWS-23" value="" style="html=1;shadow=0;dashed=0;align=center;verticalAlign=middle;shape=mxgraph.arrows2.arrow;dy=0.67;dx=20;notch=0;rotation=90;" vertex="1" parent="1">
          <mxGeometry x="139.39" y="210" width="40" height="30" as="geometry" />
        </mxCell>
        <mxCell id="CnO6H3w86couGsOHqTWS-26" value="" style="html=1;shadow=0;dashed=0;align=center;verticalAlign=middle;shape=mxgraph.arrows2.arrow;dy=0.67;dx=20;notch=0;rotation=90;" vertex="1" parent="1">
          <mxGeometry x="139.39" y="400" width="40" height="30" as="geometry" />
        </mxCell>
        <mxCell id="CnO6H3w86couGsOHqTWS-27" value="" style="html=1;shadow=0;dashed=0;align=center;verticalAlign=middle;shape=mxgraph.arrows2.arrow;dy=0.67;dx=20;notch=0;rotation=90;" vertex="1" parent="1">
          <mxGeometry x="139.39" y="569.5" width="40" height="30" as="geometry" />
        </mxCell>
        <mxCell id="CnO6H3w86couGsOHqTWS-28" value="" style="html=1;shadow=0;dashed=0;align=center;verticalAlign=middle;shape=mxgraph.arrows2.arrow;dy=0.67;dx=20;notch=0;" vertex="1" parent="1">
          <mxGeometry x="280" y="287.5" width="90" height="65" as="geometry" />
        </mxCell>
        <mxCell id="CnO6H3w86couGsOHqTWS-33" value="IPM" style="text;html=1;resizable=0;autosize=1;align=center;verticalAlign=middle;points=[];fillColor=none;strokeColor=none;rounded=0;" vertex="1" parent="1">
          <mxGeometry x="300" y="310" width="40" height="20" as="geometry" />
        </mxCell>
        <mxCell id="CnO6H3w86couGsOHqTWS-34" value="" style="html=1;shadow=0;dashed=0;align=center;verticalAlign=middle;shape=mxgraph.arrows2.arrow;dy=0.67;dx=20;notch=0;" vertex="1" parent="1">
          <mxGeometry x="280" y="467.5" width="90" height="65" as="geometry" />
        </mxCell>
        <mxCell id="CnO6H3w86couGsOHqTWS-35" value="IPM" style="text;html=1;resizable=0;autosize=1;align=center;verticalAlign=middle;points=[];fillColor=none;strokeColor=none;rounded=0;" vertex="1" parent="1">
          <mxGeometry x="300" y="490" width="40" height="20" as="geometry" />
        </mxCell>
        <mxCell id="CnO6H3w86couGsOHqTWS-36" value="" style="html=1;shadow=0;dashed=0;align=center;verticalAlign=middle;shape=mxgraph.arrows2.arrow;dy=0.67;dx=20;notch=0;" vertex="1" parent="1">
          <mxGeometry x="280" y="630" width="90" height="65" as="geometry" />
        </mxCell>
        <mxCell id="CnO6H3w86couGsOHqTWS-37" value="IPM" style="text;html=1;resizable=0;autosize=1;align=center;verticalAlign=middle;points=[];fillColor=none;strokeColor=none;rounded=0;" vertex="1" parent="1">
          <mxGeometry x="300" y="652.5" width="40" height="20" as="geometry" />
        </mxCell>
      </root>
    </mxGraphModel>
  </diagram>
</mxfile>
